# xmcd CD database file
#
# Track frame offsets:
#	150
#	48521
#	82565
#	113288
#	142428
#	162441
#	204359
#	244814
#
# Disc length: 3740 seconds
#
# Revision: 0
# Processed by: cddbd v1.5.1PL0 Copyright (c) Steve Scherf et al.
# Submitted via: CDex 1.51
#
DISCID=620e9a08
DTITLE=Sangha Quartet - Fear Of Roaming
DYEAR=2003
DGENRE=Jazz
TTITLE0=The modern Things (Björk)
TTITLE1=What Survives
TTITLE2=Du Pre
TTITLE3=Tap
TTITLE4=Black Elk
TTITLE5=Fear Of Roaming
TTITLE6=Stellar
TTITLE7=The Grind
EXTD=YEAR: 2003
EXTT0=
EXTT1=
EXTT2=
EXTT3=
EXTT4=
EXTT5=
EXTT6=
EXTT7=
PLAYORDER=
